<?xml version="1.0" encoding="UTF-8" standalone="no"?><!-- Generator: Gravit.io --><svg xmlns="http://www.w3.org/2000/svg" xmlns:xlink="http://www.w3.org/1999/xlink" style="isolation:isolate" viewBox="0 0 300 300" width="300pt" height="300pt"><defs><clipPath id="_clipPath_jGbfJioQ5BLuXE0xfqiCsk8hM2F2RYMX"><rect width="300" height="300"/></clipPath></defs><g clip-path="url(#_clipPath_jGbfJioQ5BLuXE0xfqiCsk8hM2F2RYMX)"><rect width="300" height="300" style="fill:rgb(0,0,0)" fill-opacity="0"/><g style="isolation:isolate"><path d=" M 162.598 136 L 173.375 104.419 C 174.272 101.791 174.272 97.523 173.375 94.895 L 151.625 31.162 C 150.728 28.533 149.272 28.533 148.375 31.162 L 126.625 94.895 C 125.728 97.523 125.728 101.791 126.625 104.419 L 137.402 136 L 162.598 136 L 162.598 136 Z " fill="rgb(255,255,255)"/><path d="M 137.232 123.473 L 139.877 125.481 C 140.612 126.04 141.43 127.209 141.701 128.091 L 143.226 133.044 C 143.498 133.926 143.122 134.189 142.387 133.631 L 139.742 131.623 C 139.007 131.064 138.189 129.895 137.918 129.013 L 136.393 124.06 C 136.121 123.178 136.497 122.915 137.232 123.473 Z" style="stroke:none;fill:#000000;stroke-miterlimit:10;"/><path d="M 162.21 123.475 L 159.565 125.483 C 158.829 126.041 158.012 127.21 157.74 128.092 L 156.216 133.042 C 155.944 133.924 156.32 134.187 157.055 133.629 L 159.7 131.621 C 160.435 131.063 161.253 129.894 161.524 129.012 L 163.049 124.062 C 163.321 123.18 162.945 122.917 162.21 123.475 Z" style="stroke:none;fill:#000000;stroke-miterlimit:10;"/><path d="M 150.349 107.405 L 151.832 112.313 C 152.022 112.939 152.022 113.957 151.832 114.583 L 150.337 119.53 C 150.148 120.157 149.84 120.157 149.651 119.53 L 148.168 114.622 C 147.978 113.996 147.978 112.979 148.168 112.352 L 149.663 107.405 C 149.852 106.779 150.16 106.779 150.349 107.405 Z" style="stroke:none;fill:#000000;stroke-miterlimit:10;"/></g><g style="isolation:isolate"><g><path d=" M 137.425 134.887 C 140.944 142.351 128.675 156.368 115.475 164.394 C 111.002 167.113 106.996 169.145 104.425 170 C 73.14 180.406 76.94 164.641 95.425 154 C 103.487 149.359 57.409 168.547 83.425 177 C 90.034 179.656 110.219 176.391 123.844 168 C 130.871 163.673 146.901 158.258 147.425 134.887" fill="rgb(255,255,255)" vector-effect="non-scaling-stroke" stroke-width="1" stroke="rgb(255,255,255)" stroke-linejoin="miter" stroke-linecap="square" stroke-miterlimit="3"/><path d=" M 136.927 135.753 C 134.389 136.984 128.116 141.162 128.776 139.568 C 132.212 131.265 132.657 130.962 124.844 135.887 C 115.62 141.277 115.245 131.188 115.873 125.011 C 115.981 123.948 114.268 137.784 118.929 139.761 C 123.06 140.811 131.288 132.846 123.284 144.347 C 121.332 147.151 131.727 140.651 132.482 140.298" fill="rgb(255,255,255)" vector-effect="non-scaling-stroke" stroke-width="1" stroke="rgb(255,255,255)" stroke-linejoin="miter" stroke-linecap="square" stroke-miterlimit="3"/><path d=" M 135.425 129 C 139.26 146.76 113.781 148.531 105.328 132.797 C 95.969 115.376 89.765 92.828 72.328 94.797 C 56.649 97.004 53.828 125.047 59.328 130.797 C 69.828 144.172 91.833 145.791 83.328 143.797 C 51.317 136.29 61.406 104.813 74.328 103.797 C 88.89 103.609 88.062 135.313 104.328 148.797 C 117.107 159.391 141.518 152.325 142.425 135.887" fill="rgb(255,255,255)" vector-effect="non-scaling-stroke" stroke-width="1" stroke="rgb(255,255,255)" stroke-linejoin="miter" stroke-linecap="square" stroke-miterlimit="3"/><path d=" M 141.425 153 C 141.909 185.854 134.843 201.916 124.299 197.851 C 107.175 191.25 113.302 167.507 124.299 187.115 C 113.488 159.754 100.425 195.398 123.106 202.623 C 146.281 210.005 148.636 173.854 147.425 135.887" fill="rgb(255,255,255)" vector-effect="non-scaling-stroke" stroke-width="1" stroke="rgb(255,255,255)" stroke-linejoin="miter" stroke-linecap="round" stroke-miterlimit="3"/></g><g><path d=" M 162 134.887 C 158.481 142.351 170.75 156.368 183.95 164.394 C 188.423 167.113 192.429 169.145 195 170 C 226.285 180.406 222.484 164.641 204 154 C 195.938 149.359 242.016 168.547 216 177 C 209.391 179.656 189.205 176.391 175.58 168 C 168.554 163.673 152.523 158.258 152 134.887" fill="rgb(255,255,255)" vector-effect="non-scaling-stroke" stroke-width="1" stroke="rgb(255,255,255)" stroke-linejoin="miter" stroke-linecap="square" stroke-miterlimit="3"/><path d=" M 162.498 135.753 C 165.036 136.984 171.309 141.162 170.649 139.568 C 167.212 131.265 166.767 130.962 174.58 135.887 C 183.805 141.277 184.18 131.188 183.552 125.011 C 183.443 123.948 185.156 137.784 180.496 139.761 C 176.364 140.811 168.137 132.846 176.141 144.347 C 178.093 147.151 167.697 140.651 166.943 140.298" fill="rgb(255,255,255)" vector-effect="non-scaling-stroke" stroke-width="1" stroke="rgb(255,255,255)" stroke-linejoin="miter" stroke-linecap="square" stroke-miterlimit="3"/><path d=" M 164 129 C 160.165 146.76 185.644 148.531 194.097 132.797 C 203.456 115.376 209.659 92.828 227.097 94.797 C 242.776 97.004 245.597 125.047 240.097 130.797 C 229.597 144.172 207.592 145.791 216.097 143.797 C 248.108 136.29 238.019 104.813 225.097 103.797 C 210.534 103.609 211.362 135.313 195.097 148.797 C 182.318 159.391 157.906 152.325 157 135.887" fill="rgb(255,255,255)" vector-effect="non-scaling-stroke" stroke-width="1" stroke="rgb(255,255,255)" stroke-linejoin="miter" stroke-linecap="square" stroke-miterlimit="3"/><path d=" M 158 153 C 157.515 185.854 164.582 201.916 175.126 197.851 C 192.25 191.25 186.123 167.507 175.126 187.115 C 185.936 159.754 199 195.398 176.319 202.623 C 153.143 210.005 150.788 173.854 152 135.887" fill="rgb(255,255,255)" vector-effect="non-scaling-stroke" stroke-width="1" stroke="rgb(255,255,255)" stroke-linejoin="miter" stroke-linecap="round" stroke-miterlimit="3"/></g></g><g style="isolation:isolate"><g><path d=" M 137 39.49 C 78.497 39.49 31 88.894 31 149.745 C 31 210.596 78.497 260 137 260" fill="none" vector-effect="non-scaling-stroke" stroke-width="1.961" stroke="rgb(255,255,255)" stroke-linejoin="round" stroke-linecap="round" stroke-miterlimit="1.414"/><path d=" M 137 39.49 C 85.12 39.49 43 85.085 43 141.245 C 43 197.405 85.12 243 137 243" fill="none" vector-effect="non-scaling-stroke" stroke-width="1.961" stroke="rgb(255,255,255)" stroke-linejoin="round" stroke-linecap="round" stroke-miterlimit="1.414"/><path d=" M 136 39.49 C 120.546 39.49 108 51.927 108 67.245 C 108 82.563 120.546 95 136 95" fill="none" vector-effect="non-scaling-stroke" stroke-width="1.961" stroke="rgb(255,255,255)" stroke-linejoin="round" stroke-linecap="round" stroke-miterlimit="1.414"/></g><g><path d=" M 163 39.49 C 221.503 39.49 269 88.894 269 149.745 C 269 210.596 221.503 260 163 260" fill="none" vector-effect="non-scaling-stroke" stroke-width="1.961" stroke="rgb(255,255,255)" stroke-linejoin="round" stroke-linecap="round" stroke-miterlimit="1.414"/><path d=" M 163 39.49 C 214.88 39.49 257 85.085 257 141.245 C 257 197.405 214.88 243 163 243" fill="none" vector-effect="non-scaling-stroke" stroke-width="1.961" stroke="rgb(255,255,255)" stroke-linejoin="round" stroke-linecap="round" stroke-miterlimit="1.414"/><path d=" M 164 39.49 C 179.454 39.49 192 51.927 192 67.245 C 192 82.563 179.454 95 164 95" fill="none" vector-effect="non-scaling-stroke" stroke-width="1.961" stroke="rgb(255,255,255)" stroke-linejoin="round" stroke-linecap="round" stroke-miterlimit="1.414"/></g></g></g></svg>